<svg xmlns="http://www.w3.org/2000/svg" xmlns:xlink="http://www.w3.org/1999/xlink" viewBox="0 0 30.17 30.17"><defs><style>.cls-1{fill:none;}.cls-2{clip-path:url(#clip-path);}.cls-3{fill:#847552;}</style><clipPath id="clip-path"><rect class="cls-1" y="0.01" width="30.16" height="30.24"/></clipPath></defs><title>come</title><g id="Livello_2" data-name="Livello 2"><g id="Livello_1-2" data-name="Livello 1"><g class="cls-2"><path class="cls-3" d="M30.17,19.95V10.22a.48.48,0,0,0-.34-.46l-4.5-1.34a6.71,6.71,0,0,0,.57-2.48A5.94,5.94,0,0,0,14,5.94a6.71,6.71,0,0,0,.57,2.48L10.22,9.72.62,6.87A.48.48,0,0,0,0,7.33V26.8a.48.48,0,0,0,.34.46l9.73,2.89h.29l9.4-2.79a.48.48,0,0,0,.39,0l9.4,2.79.14,0a.48.48,0,0,0,.48-.48V20Zm-1-9.37v8.73l-8.77-2.6V15.34a27.92,27.92,0,0,0,4.49-6ZM20,1a5,5,0,0,1,5,5,6.28,6.28,0,0,1-.67,2.54.49.49,0,0,0,0,.1A26.21,26.21,0,0,1,20,14.45,26.19,26.19,0,0,1,15.7,8.58a.47.47,0,0,0-.05-.11A6.27,6.27,0,0,1,15,5.94a5,5,0,0,1,5-5Zm-.48,14.37v1.37l-8.77,2.6V10.58L15,9.31a27.91,27.91,0,0,0,4.49,6ZM1,17.71l3.33,1,.14,0a.48.48,0,0,0,.14-.94L1,16.71V8l8.77,2.6v8.73l-3.33-1a.48.48,0,0,0-.27.92l3.6,1.07V29L1,26.44Zm19.47,8.73V23a.48.48,0,0,0-1,0v3.49L10.7,29V20.31l8.77-2.6V21a.48.48,0,0,0,1,0V17.71l8.77,2.6V29Zm0,0"/></g><path class="cls-3" d="M20,9.31a3.37,3.37,0,1,0-3.37-3.37A3.37,3.37,0,0,0,20,9.31Zm0-5.78a2.41,2.41,0,1,1-2.41,2.41A2.41,2.41,0,0,1,20,3.53Zm0,0"/></g></g></svg>