<svg xmlns="http://www.w3.org/2000/svg" viewBox="0 0 23.32 33.3"><defs><style>.cls-1{fill:#847552;}</style></defs><title>Dove</title><g id="Livello_2" data-name="Livello 2"><g id="Livello_1-2" data-name="Livello 1"><path class="cls-1" d="M19.91,3.42a11.66,11.66,0,0,0-16.49,0C-.66,7.49-1.17,15.16,2.32,19.8L11.66,33.3,21,19.82c3.5-4.66,3-12.33-1.08-16.41Zm.1,15.7-8.34,12L3.3,19.09C.14,14.88.6,8,4.28,4.28A10.45,10.45,0,0,1,19,4.28c3.68,3.68,4.13,10.6,1,14.84Zm0,0"/><path class="cls-1" d="M11.77,7.3A4.26,4.26,0,1,0,16,11.55,4.26,4.26,0,0,0,11.77,7.3Zm0,7.3a3,3,0,1,1,3-3,3,3,0,0,1-3,3Zm0,0"/></g></g></svg>