<svg xmlns="http://www.w3.org/2000/svg" viewBox="0 0 28 13.18"><defs><style>.cls-1{fill:#847552;}</style></defs><title>dress</title><g id="Livello_2" data-name="Livello 2"><g id="Livello_1-2" data-name="Livello 1"><path class="cls-1" d="M27,.48a.47.47,0,0,0-.37-.32,12.27,12.27,0,0,0-7.18,1,13,13,0,0,0-3.16,2.12H11.66A13,13,0,0,0,8.5,1.15a12.27,12.27,0,0,0-7.18-1A.47.47,0,0,0,1,.48,20.06,20.06,0,0,0,1,12.69a.47.47,0,0,0,.37.32,12.61,12.61,0,0,0,2,.17A11.94,11.94,0,0,0,8.56,12a12.84,12.84,0,0,0,3.1-2.11h4.86A.47.47,0,0,0,17,9.42V8.09a13.62,13.62,0,0,0,1.75.39,13.62,13.62,0,0,0,1.36.14h0a.47.47,0,0,0,0-.93,12.68,12.68,0,0,1-1.26-.13A12.68,12.68,0,0,1,17,7.12V5.73a12.32,12.32,0,0,1,1.88-.45,11.16,11.16,0,0,1,2.3-.05.47.47,0,1,0,.08-.93,12.09,12.09,0,0,0-2.5.06,12,12,0,0,0-1.76.4V3.94A12.06,12.06,0,0,1,19.9,2a11.31,11.31,0,0,1,6.35-1,19.14,19.14,0,0,1,0,11.08,13.12,13.12,0,0,1-7.69-1.6.47.47,0,0,0-.4.84,13.38,13.38,0,0,0,6.48,1.8,9.83,9.83,0,0,0,2-.17.47.47,0,0,0,.37-.32A20.06,20.06,0,0,0,27,.48ZM8.16,11.15a11.17,11.17,0,0,1-6.4,1A19.14,19.14,0,0,1,1.75,1,11.31,11.31,0,0,1,8.1,2,12.06,12.06,0,0,1,11,3.94v.81a12,12,0,0,0-1.76-.4,12.1,12.1,0,0,0-2.5-.06.47.47,0,1,0,.08.93,11.18,11.18,0,0,1,2.3.05A12.3,12.3,0,0,1,11,5.73V7.12a12.68,12.68,0,0,1-1.89.44,12.65,12.65,0,0,1-1.26.13.47.47,0,0,0,0,.93h0a13.6,13.6,0,0,0,1.36-.14A13.61,13.61,0,0,0,11,8.09V9.22A11.9,11.9,0,0,1,8.16,11.15Zm3.79-5.77h0V4.2h4.11V5.38h0V9H11.95Z"/></g></g></svg>