<svg xmlns="http://www.w3.org/2000/svg" viewBox="0 0 83.54 36.46"><defs><style>.cls-1,.cls-2{fill:#fff;}.cls-2{fill-rule:evenodd;}</style></defs><title>logo</title><g id="Livello_2" data-name="Livello 2"><g id="Livello_1-2" data-name="Livello 1"><path class="cls-1" d="M1.28,1.28h81v33.9h-81ZM0,36.46H83.54V0H0Z"/><path class="cls-2" d="M68.43,24.49a.11.11,0,0,1,.12.08l.93,2.37a.18.18,0,0,1-.1.26c-.12,0-.1.06-.1.13s.08.05.29.06c.93,0,1.51,0,1.93,0s.33-.21.16-.25-.58-.21-1-1.22c-.74-1.7-2.6-6.26-2.88-6.87-.1-.24-.11-.33-.18-.33s-.17.23-.3.56l-2.85,6.92c-.23.56-.57.9-.86,1-.09,0-.19.09-.19.15s.06.08.21.08h1.55c.13,0,.14,0,.14-.12s-.17-.08-.17-.08c-.18,0-.18-.1-.14-.35a2.92,2.92,0,0,1,.17-.68l.63-1.6c0-.07,0-.09.1-.09Zm-2.35-.56s-.06,0,0-.08L67.1,21.1s0-.1.07-.1,0,.06.06.1l1,2.76s0,.07-.06.07Z"/><path class="cls-1" d="M61.92,24.21c0,1.07,0,1.95-.06,2.41s-.1.51-.33.55-.24,0-.24.13.05.11.2.11h2.1c.13,0,.18,0,.18-.11s0-.12-.14-.15-.33-.23-.37-.53c0-.48,0-1.35,0-2.42V22.26c0-1.68,0-2,0-2.35s.12-.57.43-.63c.14,0,.13-.06.13-.14s-.17-.09-.32-.09H61.54c-.19,0-.2,0-.2.09s0,.11.18.15.36.25.38.62,0,.66,0,2.35Z"/><path class="cls-1" d="M22.39,24.21c0,1.07,0,1.95-.06,2.41s-.1.51-.33.55-.24,0-.24.13.05.11.2.11h2.1c.13,0,.18,0,.18-.11s0-.12-.14-.15-.33-.23-.37-.53c0-.48,0-1.35,0-2.42V22.26c0-1.68,0-2,0-2.35s.12-.57.43-.63c.14,0,.13-.06.13-.14s-.17-.09-.32-.09H22c-.19,0-.2,0-.2.09s0,.11.18.15.36.25.38.62,0,.66,0,2.35Z"/><path class="cls-2" d="M12.88,24.25c0,1,0,1.91-.06,2.38s-.1.57-.32.61a1.84,1.84,0,0,1-.4,0c-.13,0-.18,0-.18.09s.08.11.22.11c.45,0,1.15,0,1.4,0,.56,0,1.56.13,2.38.13a5.09,5.09,0,0,0,3.74-1.32,4.43,4.43,0,0,0,1.22-3.11,4,4,0,0,0-1.08-2.83c-1.22-1.27-3.08-1.27-4.47-1.27-.67,0-1.37,0-1.72,0s-1,0-1.61,0c-.17,0-.25,0-.25.1s.07.1.19.1a2.31,2.31,0,0,1,.43,0c.37.08.46.26.48.64s0,.67,0,2.36Zm1.39-2.14c0-.88,0-1.85,0-2.23a.2.2,0,0,1,.13-.22,3,3,0,0,1,.73-.08,4.42,4.42,0,0,1,3.17,1.12,3.79,3.79,0,0,1,1.07,2.79,3.52,3.52,0,0,1-.94,2.78,3.58,3.58,0,0,1-2.56.8c-.88,0-1.32-.23-1.46-.45a2.45,2.45,0,0,1-.12-.85c0-.21,0-1.07,0-2.25Z"/><path class="cls-1" d="M26.38,19c-.17,0-.19,0-.19.1a.14.14,0,0,0,.11.15c.26.07.44.23.7.85l2.81,6.82c.21.52.28.68.42.68s.22-.18.51-.83l1.48-3.4c.6-1.37.9-2,1.34-3,.3-.71.47-.9.61-1a1,1,0,0,1,.55-.13c.11,0,.18,0,.18-.1s-.09-.1-.24-.1H32.81c-.14,0-.19,0-.19.11s.08.13.15.15.33,0,.29.21a2,2,0,0,1-.1.41c-.27.74-1.83,4.53-2.31,5.75l-.09-.19-1.92-5.07a3.32,3.32,0,0,1-.26-.86.27.27,0,0,1,.11-.23c.09-.07.19-.1.19-.18s0-.1-.13-.1Z"/><path class="cls-1" d="M35.65,24.22c0,1,0,1.91-.06,2.38s-.1.57-.32.61-.15.08-.15.13.06.11.21.11c.45,0,2.11,0,3.8,0,.42,0,.52,0,.6-.29a1.9,1.9,0,0,0,.08-.58c0-.11,0-.18-.07-.18a.12.12,0,0,0-.14.1.83.83,0,0,1-.37.28,1.65,1.65,0,0,1-.84.16c-1.14,0-1.31-.26-1.33-1,0-.32,0-1.35,0-1.73v-.88c0-.07,0-.2.07-.2.27,0,1.09,0,1.3,0,.41,0,.59.09.64.29a.13.13,0,0,0,.15.1c.1,0,.11,0,.11-.14s.09-.88.09-.95,0-.07-.09-.07-.09,0-.15.07a.78.78,0,0,1-.54.17c-.26,0-1.26,0-1.5,0-.07,0-.08,0-.08-.12V19.72c0-.08,0-.21.08-.21.22,0,1.33,0,1.52,0,.56.07.52.19.57.31s.06.17.14.17.1-.06.11-.12.14-.79.14-.87,0-.1-.07-.1a1.07,1.07,0,0,0-.18,0,4.26,4.26,0,0,1-.48.07c-.21,0-2.15,0-2.51,0s-1,0-1.61,0c-.17,0-.25,0-.25.1s.07.1.19.1a2.26,2.26,0,0,1,.44,0c.37.08.46.26.48.64s0,.67,0,2.37Z"/><path class="cls-1" d="M56.31,26.81c1.57-2.4,3.11-5,4.65-7.46a.47.47,0,0,0,.09-.21c0-.05-.08-.09-.19-.09h-3.4c-.46,0-1,0-2.05,0a3.12,3.12,0,0,1-.45-.08c-.07,0-.11.06-.13.21a6.17,6.17,0,0,0-.13.9c0,.13,0,.18.1.18a4,4,0,0,1,.63-.35,5.66,5.66,0,0,1,1.76-.29h2c-1.49,2.36-3.09,4.93-4.66,7.39-.13.2-.17.26-.17.33s.07.11.19.11c2.25,0,4.13.06,6,.06.2,0,.28-.09.34-.29s.09-.51.17-.86c0-.19,0-.25-.13-.25s-.14-.05-.24.12c-.18.33-.61.61-1.75.61Z"/><path class="cls-1" d="M41.48,21.44h0c.2.21,1.45,1.56,2.67,2.73s2.6,2.53,3.31,3.18c.12.12.22.24.34.24s.12-.11.12-.35L48,20.41c0-.8.06-1.09.37-1.18.13,0,.2-.07.2-.13s0-.09-.17-.09H46.85c-.17,0-.23,0-.23.1s.07.1.23.16.37.58.38,1.24l.11,4.86h-.06c-.19-.17-1.7-1.73-2.47-2.47-1.64-1.57-3.11-3.31-3.24-3.45s-.24-.45-.46-.45-.15.25-.15.46l-.1,6.4c0,.94-.25,1.25-.54,1.34s-.15.08-.15.14.15.11.3.11h1.36c.16,0,.26,0,.26-.11s0-.11-.17-.17-.32-.35-.34-1.19Z"/><path class="cls-1" d="M49.88,24.22c0,1,0,1.91-.06,2.38s-.1.57-.32.61-.15.08-.15.13.06.11.21.11c.45,0,2.11,0,3.8,0,.42,0,.52,0,.6-.29a1.92,1.92,0,0,0,.08-.58c0-.11,0-.18-.07-.18a.12.12,0,0,0-.14.1.83.83,0,0,1-.37.28,1.65,1.65,0,0,1-.84.16c-1.14,0-1.31-.26-1.33-1,0-.32,0-1.35,0-1.73v-.88c0-.07,0-.2.07-.2.27,0,1.09,0,1.3,0,.41,0,.59.09.64.29a.13.13,0,0,0,.15.1c.1,0,.11,0,.11-.14s.09-.88.09-.95,0-.07-.09-.07-.09,0-.15.07a.78.78,0,0,1-.54.17c-.26,0-1.26,0-1.5,0-.07,0-.08,0-.08-.12V19.72c0-.08,0-.21.08-.21.22,0,1.33,0,1.51,0,.56.07.52.19.57.31s.06.17.14.17.1-.06.11-.12.14-.79.14-.87,0-.1-.07-.1a1.09,1.09,0,0,0-.18,0,4.26,4.26,0,0,1-.48.07c-.21,0-2.15,0-2.51,0s-1,0-1.61,0c-.17,0-.25,0-.25.1s.07.1.19.1a2.26,2.26,0,0,1,.44,0c.37.08.46.26.48.64s0,.67,0,2.37Z"/><path class="cls-1" d="M30,18.49A3.4,3.4,0,0,0,31.86,18a2.25,2.25,0,0,0,1.08-2c0-1.07-.51-1.82-1.89-2.86L30.73,13c-1-.71-1.42-1.1-1.42-1.62A1.48,1.48,0,0,1,30.82,10a1.82,1.82,0,0,1,1.39.7c.21.23.27.38.35.38s.14,0,.14-.23c0-.53,0-.71,0-.85s-.06-.11-.16-.13A5.74,5.74,0,0,0,31,9.68c-1.6,0-2.67.89-2.67,2.12,0,.91.44,1.7,1.71,2.66l.53.4c1,.72,1.26,1.25,1.26,1.8a1.61,1.61,0,0,1-1.64,1.46A1.81,1.81,0,0,1,28.43,17c0-.09,0-.12-.14-.12s-.12.06-.14.27a4.82,4.82,0,0,0,0,.68c0,.25,0,.3.22.38a4.1,4.1,0,0,0,1.68.29"/><path class="cls-1" d="M38.06,12.19h0c.2.21,1.46,1.57,2.69,2.75s2.63,2.55,3.34,3.21c.12.12.22.24.34.24s.12-.11.12-.35l.07-6.89c0-.81.06-1.1.38-1.19.14,0,.2-.07.2-.13s0-.09-.17-.09H43.49c-.17,0-.23,0-.23.1s.07.1.24.16.37.59.38,1.25l.11,4.9h-.06c-.19-.17-1.72-1.75-2.49-2.49-1.65-1.58-3.22-3.32-3.35-3.46s-.26-.38-.38-.38-.15.15-.15.37l-.1,6.46c0,.95-.25,1.27-.54,1.35s-.16.08-.16.14.16.11.3.11h1.37c.16,0,.26,0,.26-.11s0-.11-.17-.17-.32-.35-.35-1.2Z"/><path class="cls-1" d="M17.44,18.41a7,7,0,0,0,2.09-.26.4.4,0,0,0,.3-.32,3.26,3.26,0,0,0,.1-.94.15.15,0,0,0-.15-.15c-.09,0-.15.19-.35.4a2.6,2.6,0,0,1-2.12.81,4,4,0,0,1-3.66-4.16,3.65,3.65,0,0,1,1.07-2.89A3.15,3.15,0,0,1,16.91,10a3.49,3.49,0,0,1,2.35.85c.29.29.36.32.45.46s.06.18.15.18.09,0,.1-.19,0-.27,0-.64.06-.52.06-.61,0-.12-.17-.13c-.35,0-.72-.13-1.16-.19A11.81,11.81,0,0,0,17,9.65a5.18,5.18,0,0,0-3.67,1.18A4.13,4.13,0,0,0,12,13.9a4.14,4.14,0,0,0,1.44,3.3,6,6,0,0,0,4,1.22"/><path class="cls-2" d="M25,15.29a.11.11,0,0,1,.12.08l.93,2.37a.18.18,0,0,1-.1.26c-.12,0-.1.06-.1.13s.08.05.29.06c.93,0,1.51,0,1.93,0s.34-.21.16-.25-.58-.21-1-1.22c-.74-1.7-2.6-6.27-2.88-6.88-.1-.24-.11-.34-.18-.34s-.17.23-.31.56L21,17c-.23.56-.57.9-.86,1-.09,0-.2.09-.2.15s.06.08.21.08h1.56c.13,0,.14,0,.14-.12s-.17-.08-.17-.08c-.18,0-.18-.1-.14-.35a3,3,0,0,1,.17-.68l.63-1.6c0-.07,0-.09.1-.09Zm-2.36-.56s-.06,0,0-.08l1.07-2.75s0-.1.07-.1,0,.06.06.1l1,2.76s0,.07-.06.07Z"/><path class="cls-1" d="M34.35,15c0,1.08,0,2-.06,2.42s-.1.51-.33.56-.24,0-.24.13,0,.11.2.11H36c.12,0,.18,0,.18-.11s0-.12-.14-.15-.32-.23-.36-.53c0-.48,0-1.35,0-2.43v-2c0-1.69,0-2,0-2.35s.11-.58.42-.63c.14,0,.12-.06.12-.14s-.16-.09-.31-.09H34c-.18,0-.19,0-.19.09s0,.11.17.15.35.25.37.63,0,.67,0,2.35Z"/><path class="cls-2" d="M50.14,18.5a4.67,4.67,0,0,0,5-4.75c0-2.64-1.89-4.31-4.89-4.29-3.62,0-5,2.57-5,4.54a4.5,4.5,0,0,0,4.88,4.5m.51-.58a3.86,3.86,0,0,1-4.08-4c0-2.87,1.93-3.94,3.31-3.95a4,4,0,0,1,3.86,4.18c0,3.33-2.25,3.72-3.09,3.72"/><path class="cls-1" d="M70.64,17.38h0s-.07.17-.09.22h0a.41.41,0,0,0,0-.23.67.67,0,0,1,0-.21.47.47,0,0,0,0-.13.87.87,0,0,1,0-.17h0l.08.11h0a1.28,1.28,0,0,1-.08-.43V16.4l0-.28c0-.07,0-.13,0-.2s0-.32,0-.49h0a4.18,4.18,0,0,0-.06-.47h0l0-.15a2.79,2.79,0,0,0-.13-.33,2.71,2.71,0,0,0-.13-.24A2.15,2.15,0,0,0,70,14L70,14l-.08-.11h0l-.15-.19-.09-.13c-.15-.16-.31-.32-.48-.47l-.28-.22c-.17-.12-.35-.22-.52-.33l-.19-.09a1.63,1.63,0,0,1-.25-.16,1.64,1.64,0,0,0-.34-.21c-.49-.15-.31-.55-1.49-.61-.42,0-1.13.2-1.52.19-.21,0-.27,0-.49,0h-.36a2.62,2.62,0,0,0-.48,0h-.4a2.53,2.53,0,0,1-.53,0l-.7,0c-.31,0-.62-.11-1.09-.13a1,1,0,0,1-.49-.24h0c-.11-.09-.15-.14-.14,0v0h0c-.05.11-.23.48-.16.58s-.15.14-.21.24,0,.09,0,.13h0a1.08,1.08,0,0,1-.24.36h0s0,0,0-.08l0-.17a.58.58,0,0,0,0-.09.66.66,0,0,1,0-.16.33.33,0,0,1,.09-.14s.06,0,.07-.05a.67.67,0,0,0,0-.23c-.06,0-.1.09-.13.16h0l0-.2s0,0,0-.07a.22.22,0,0,0,.11-.2.3.3,0,0,0,0-.06h0a.09.09,0,0,1,0-.08h0c.06,0,.08,0,.13,0s0,0,0-.06a.7.7,0,0,0,0-.34h-.08l0,.15h0l0-.05h0c0,.13-.07.26-.11.38h0a1.28,1.28,0,0,1-.07.17s0,0,0,0a.22.22,0,0,0,0-.14.7.7,0,0,1,0-.25l0-.15,0-.07h0a.18.18,0,0,0,0-.08c0-.13-.08-.26,0-.34a.25.25,0,0,0,0-.07H59c0,.08,0,.18-.06.26a.55.55,0,0,0,0,.22h0a1.11,1.11,0,0,1,0,.25h0a.29.29,0,0,1-.17-.08.68.68,0,0,1-.07.3h0a1.29,1.29,0,0,0-.07.18c0,.06,0,.12,0,.15a.3.3,0,0,1-.11-.07h0c0,.1-.08.27-.11.35s0,.1,0,.14h0a.34.34,0,0,0,0-.18l0,.07a.35.35,0,0,1-.24.17h0a.23.23,0,0,0,.08-.22c-.08.09-.21.09-.24.25l0,0c0-.14.05-.27-.11-.31h-.1v0a1.15,1.15,0,0,0,.11-.16,1.37,1.37,0,0,0,.06-.27h0a.36.36,0,0,1,0,.17l0,.16h0a.84.84,0,0,1,.32-.39.29.29,0,0,0,0,.26h0a.84.84,0,0,0,.12-.26h0c0-.11,0-.21,0-.26s-.1.11-.16.16h0v0a.48.48,0,0,0,.11-.35.68.68,0,0,0-.11-.41.21.21,0,0,0,0-.07h0a.11.11,0,0,0,0-.09h0s0,.07,0,.1h0a3.33,3.33,0,0,1,0,.48.56.56,0,0,1,0,.11c0,.06,0,.16-.07.19h0c0-.05,0-.19,0-.28h0a.11.11,0,0,0,0-.05v.05a.85.85,0,0,1-.25.48l0,.07a1.07,1.07,0,0,0-.09.21l0,.18h0a1.6,1.6,0,0,1,0-.38h0l-.06.15c-.09.15-.26.21-.39.32S57,12,56.93,12h0c0-.16.08-.19,0-.36,0,.05,0,.08-.05.12a1.48,1.48,0,0,0-.15.42v.05c0,.09,0,.19.05.23a1.19,1.19,0,0,0,.2-.18l0,0h0s0-.05,0-.06a.24.24,0,0,1,0,.06,1.69,1.69,0,0,1,0,.2.38.38,0,0,0,.34-.17h0c0,.11-.1.31-.13.39s0,.14,0,.15a.23.23,0,0,0-.22,0c0,.07,0,.1,0,.14L57,13h0a.32.32,0,0,1,.09-.13l0,0c0,.07,0,.13.09.11l.12-.08h0v0h0s.06-.07.08,0a.14.14,0,0,1,0,.1h0l-.06.1a.73.73,0,0,0,0,.41h0a.43.43,0,0,1,.08-.19h0a1.94,1.94,0,0,0,0,.48.47.47,0,0,0,0,.1s0,.11.08.12a.07.07,0,0,1,0,0c0,.05,0,.16,0,.2h0c0-.08,0-.21.11-.25l.09,0,0-.09h0a.4.4,0,0,1,.11-.12h0a.17.17,0,0,1,0,.11h.29a.5.5,0,0,1,.17-.17h0l-.06.16,0,.1v.24h0a.49.49,0,0,1-.08-.11c-.07,0-.09.07-.14.11a.94.94,0,0,1,0-.2s.07-.06.09-.09l0,0h-.29c0,.1-.08.23-.05.33h0a.46.46,0,0,1,.07-.15h0c.07.12,0,.27,0,.4v.07a1.3,1.3,0,0,0,.22.4h0a.35.35,0,0,1,0-.12h0a.32.32,0,0,0,.12.2l0,0c.09,0,.16,0,.22.11a.55.55,0,0,1,0,.18l0,.17h1.07a.52.52,0,0,0,.14-.16H60l-.07,0h0v0c0-.09.15-.13.16-.25l-.09,0-.09.07h0a.24.24,0,0,1,.09-.16h0l0-.06a.69.69,0,0,0,0-.4l0,0-.13,0v0h0a.64.64,0,0,0,.24-.31.36.36,0,0,1,0-.15h0c.09.06,0,.17.07.27h0c.06-.11.18-.15.21-.31a.32.32,0,0,1-.15,0l-.07,0,0,0a1.08,1.08,0,0,1-.14.07h0l.05-.06h-.85a.19.19,0,0,1,0,.06h0v0a.62.62,0,0,1,0-.17c0-.14.12-.24.17-.33l0-.09h0c0,.2-.09.3-.15.46a.69.69,0,0,0,0,.13h.85a1.44,1.44,0,0,0,.17-.23l0-.12h0s0,.09,0,.12a.26.26,0,0,0,.07-.3s0,0-.06-.07a.33.33,0,0,0,.15-.2,1.3,1.3,0,0,1,.12-.31h0c0,.09,0,.18,0,.24l0,.07h0a3.3,3.3,0,0,1-.05.43h0a.74.74,0,0,0,.3-.15l0,0a.12.12,0,0,0,0,.09s.06,0,.12.06v0l-.2.19-.07.11h0a1.09,1.09,0,0,0-.07.16,1.22,1.22,0,0,1-.05.16.67.67,0,0,0-.09.32l3.89-.64.27-.06a3.34,3.34,0,0,0,0-.53,1.57,1.57,0,0,1,.05-.21h0a.58.58,0,0,0,.05-.09h0V13a1.38,1.38,0,0,0,.11.48,2.18,2.18,0,0,0,.23.32h2.4l0-.14-.09-.22a.55.55,0,0,0-.09-.21.49.49,0,0,0-.19-.09l0-.14,0-.09a1.09,1.09,0,0,1-.08-.19c0-.06,0-.07.06-.11s0-.07,0-.11h0s0,0,.06,0l.08-.05v-.16c.11.08.12.15.3.18v0h0v0a1.34,1.34,0,0,1,.5.16s.13.07.17,0v0c.1,0,.22.17.3.23s0,0,0,0h0l.19.16.09.07.06.07.12.06c.08.06.12.15.21.2s.17.19.21.16a1.65,1.65,0,0,1,.2.24h0l.13.19.09.12h0l.16.33.06.12,0,.19,0,.17c0,.15.07.31.1.48l0,.22c0,.08,0,.18,0,.26h0s0,.1,0,.14v.13a1.23,1.23,0,0,1,0,.2.79.79,0,0,1,0,.12.78.78,0,0,0,0,.25v.34h0a.88.88,0,0,0-.13.59v0a1.68,1.68,0,0,1,.19.41h0a1.12,1.12,0,0,1,.07-.39h0s0,.17.09.19a1.73,1.73,0,0,1,0-.25.51.51,0,0,0,0-.3M58.23,12.31a.12.12,0,0,1,0,.08c0,.09-.1.14-.13.22a1.39,1.39,0,0,1-.05.16c0-.09,0-.25,0-.3H58c0-.08.15-.08.21-.18m-.75.34a.59.59,0,0,1,.13-.41h0c0,.1.05.15.06.24s-.2.06-.2.17Zm.15.71h0a1.76,1.76,0,0,1,0-.22s0,0-.05.05h0a.19.19,0,0,1,0-.14h0c0-.08.1-.15.11-.19l0-.1c.06,0,0,.16.07.21s.18-.06.24-.12v0s-.05.1-.09.15h0a1.71,1.71,0,0,0-.28.32m1.05,1.55a.44.44,0,0,1-.24-.22h.08a.6.6,0,0,1-.05-.2c0,.05.08.12.13.18s.08,0,.1.06h0l0,0c0,.07,0,.1.07.13s0,0-.05,0m.32-2a.83.83,0,0,1-.07.16c-.06.1-.13.18-.19.27s-.05.14-.1.12a.82.82,0,0,1,0-.21,1,1,0,0,1-.15.07h0a.63.63,0,0,0,.16-.23h-.29a2.85,2.85,0,0,0-.27.34s-.11.27-.12.27h0a.5.5,0,0,0,0-.16h0a1.94,1.94,0,0,0-.21.23h0s0-.12,0-.16l0,0h0c0-.12.2-.28.27-.36s0-.11.08-.14h0v0h0a.13.13,0,0,0,.07-.05l.06-.08a.63.63,0,0,1,.16-.14.8.8,0,0,0,.19-.11c0,.06,0,.15-.06.19a.59.59,0,0,1-.07.13h.29l.07-.14c.06-.1.14-.17.21-.26s.06.17,0,.24m0-1.2v.18a1.16,1.16,0,0,1-.06.34,0,0,0,0,1,0,0s0-.1,0-.14l-.05.12-.05.09a.9.9,0,0,0-.11.19s0,.12,0,.16h0c-.08,0,0-.22,0-.34a.24.24,0,0,0,0-.07l-.1.07a.18.18,0,0,0,0,.07h0a.09.09,0,0,1,0-.06l0-.08c.08-.13.18-.22.25-.36s0-.19.08-.26h0s0,0,0,.06h0L59,11.5v0l0,0c0,.06,0,.11,0,.19M59.67,13h0c0,.07,0,.14-.06.2h0a1.09,1.09,0,0,1,0-.2h0a.62.62,0,0,1,0-.22c0-.08.15-.13.18-.22s0-.13,0-.21l0-.15v-.06h0l0,.06,0,0h0c0,.06,0,.14,0,.22l0,.17a1.52,1.52,0,0,1-.21.32Zm.59-.38,0,.11v.07l0,0,0,.13,0,0-.06.1s0,.12-.09.13h0v0a.94.94,0,0,0,.08-.2h0v0h0a.88.88,0,0,0,.16-.25c0-.06,0-.13,0-.19s0,.05-.08.07v0a1.29,1.29,0,0,1,.12-.22s0-.11.07-.15h0a.36.36,0,0,1,0,.12s0,0,.05,0a1.1,1.1,0,0,1-.07.22m10.13,4.86a.33.33,0,0,0,0,.16s0,.07,0,.1h0a.26.26,0,0,1,0-.1.56.56,0,0,1,0-.32s0-.08,0-.11h0a1.45,1.45,0,0,1,0,.2Zm-9.84-2.85a.24.24,0,0,0,.18.28h0a1.45,1.45,0,0,0,.47.08,2.13,2.13,0,0,0,.69-.08,3.84,3.84,0,0,0,1-.48c.05,0,.08,0,.08,0s.19-.18.29-.22.4,0,.23-.18a1.17,1.17,0,0,0,.42-.07c.09.06.28-.06.36-.1l.18-.06-3.89.64a.54.54,0,0,0,0,.2m5.59-.22v0h1.67a1.33,1.33,0,0,1-.09-.18c0-.09-.08-.2-.12-.29a1,1,0,0,1-.06-.17h-2.4a1.67,1.67,0,0,0,.4.34c.14.09.38,0,.48.1s-.09.12-.12.2h0c0,.06.07.17.09.22a1,1,0,0,0,.15.25.64.64,0,0,0,.31.22l-.08-.11L66.3,15a1.57,1.57,0,0,1-.15-.3s-.06-.13,0-.18Z"/><path class="cls-1" d="M55.19,18.32H56c0-.21-.09-.42-.12-.64l-.06-.32V17.2l0-.16h0c0-.21-.05-.42-.1-.62v0h-.24a.42.42,0,0,1,0,.17l0,0,0-.15,0-.16a.79.79,0,0,0,0-.15h0v0h.07l0,0c0,.08.06.23.07.35h.24l0-.21c0-.08,0-.17,0-.26a1.56,1.56,0,0,0,0-.17l-.09-.32,0-.06h-.19l0,0-.05.11h0a1,1,0,0,1,0-.11v0a.21.21,0,0,1-.19-.06l0,0c-.11,0-.25,0-.37,0s0,0-.08-.06-.17,0-.2-.08v0l0,0-.48.07-.54.1,0,.18h.05l0-.12.25,0v.07l.1.49,0,.12h0l0-.12-.07-.49v-.05h.08v.06l0,.26c0,.07,0,.15,0,.23h.33a2.72,2.72,0,0,0-.07-.3l0,0,0-.05s0,0,.05,0h0l0,.18,0,.19,0,.14v0l-.07.05,0,0h0a.39.39,0,0,0,0-.18h-.33a2.82,2.82,0,0,0,0,.31l0,.17v.15c0,.16.05.32.08.49h0c0,.19.06.38.1.56l0,.08c.05.21.11.42.16.64a3.52,3.52,0,0,1,.06.43c.13,0,.28,0,.4-.07h.15l.59-.07.57-.16v0l0-.09Zm.34-.47h0l-.05,0h0v0a.19.19,0,0,0,.09-.06h.05v0Zm-.38-.18v0c.08-.07.24,0,.3-.09h0l0,.09,0,0a1.05,1.05,0,0,0-.31,0m.21-1h.06c.14,0,.16.11.12.21h0a.11.11,0,0,0-.17-.12Zm-.05,0a1.2,1.2,0,0,0,0,.2l.11,0,0,0v0c-.07,0-.08,0-.13,0l0,.11h.15V17s0,0,.06.05h0v0l.06,0,0,0s0,0-.06,0l0,0a.22.22,0,0,1,0-.09h-.15v.07a.17.17,0,0,1,0,.09h0s0,0-.06,0a.22.22,0,0,0,0-.18.87.87,0,0,1-.06-.25l0,0,0-.05h.09Zm-.42-1.28H55l0,0,.44.45,0,0c-.13-.06-.26-.24-.38-.33s-.05-.08-.15-.1ZM55,17v0l-.14,0h-.06l0,.06V17h0a.27.27,0,0,1,.15-.28h0v0h0l.07.28,0,.15h0l0,0c-.06,0-.08,0-.12,0l0,0Zm-.23.07h0a.19.19,0,0,1,.07.15h0l0,0h0a.08.08,0,0,1,0-.08c0-.05,0-.06,0-.12m0-.93v0l0,0h.06l0,.27v.19h0l0-.2,0-.21Zm.2,0h0v0l.08,0h0a.09.09,0,0,1,0,.13l0,0v0c0-.05,0-.05-.06-.06m.06.42,0,0a.55.55,0,0,0,.06-.14h0s0-.06-.12-.12h.07a.12.12,0,0,1,.12.13.19.19,0,0,1-.11.17m-.4-1.12h0v0h.06l.11.47H55a.49.49,0,0,0,.12-.21l0,.06a.67.67,0,0,1,0,.15h0v0S55,16,55,16l0,0h0s0,0,0,0l-.12,0,0-.06h0v0l0-.18a.76.76,0,0,0-.2,0v-.06l.17-.06,0-.2v0a.12.12,0,0,0-.12.09c0,.05,0,.12,0,.17h0a.32.32,0,0,1,.16-.32m-.06,1.82h0v0h0v0a.07.07,0,0,1-.08,0c0-.09,0-.15,0-.24v-.13l0,0,0,0a.32.32,0,0,1,0,.12s0,.09,0,.12m0-.88,0-.17h0v0l0,0h.06l0,.23,0,.12v.12h0Zm-.07-.48v0l0,0h0a.22.22,0,0,0,0,.06h0a.19.19,0,0,1,0,.09l0,0s0,0-.07,0l0,0ZM54.49,17l.05.34,0,0L54.44,17l0-.1-.07,0a.24.24,0,0,0,0,.07h0s0,.08,0,.11h0a.11.11,0,0,1-.06-.1.2.2,0,0,1,0-.11l.07,0,.08,0h.06v0h0Zm0,.29,0,0,0,0h-.05v0h0v-.07s.06,0,.06.08m-.21-1.76,0,0,0-.06.06,0c.16,0,.19.13.13.24h0c0-.12,0-.21-.15-.16m-.06.86h-.05v0s0-.07,0-.13l.36-.07h0v0h0v0c0,.05,0,.07,0,.12v0h-.08l0-.08v-.06l-.1,0,0,.13.06.39h-.09v0a1.29,1.29,0,0,0,0-.38l0-.11-.11,0a.22.22,0,0,1,0,.09h0Zm.87,1.51h0L55,18h0v0a.19.19,0,0,0,.09-.06h.05v0Zm0-.26h-.4a.23.23,0,0,0,0,.12l.08.1,0,0a.23.23,0,0,1-.12-.25h0a.29.29,0,0,1,.14-.23c.06,0,.13,0,.19,0v0H55a.09.09,0,0,1,0,.05c-.07,0-.14,0-.21,0a.24.24,0,0,0-.11.17h.4a.31.31,0,0,1,.14-.31c.06,0,.13,0,.19,0v0h.06a.1.1,0,0,1,0,.05c-.07,0-.14,0-.21,0a.26.26,0,0,0-.12.25h0v0l.08.1,0,0a.21.21,0,0,1-.12-.17"/><path class="cls-1" d="M53.82,18.32a4.08,4.08,0,0,0,.08.48H54a2.12,2.12,0,0,1-.05-.34l0-.15h-.06Z"/><path class="cls-1" d="M60.24,18.32h0a.23.23,0,0,0,0,.06l.06-.06"/><path class="cls-1" d="M59.18,18.32a1.07,1.07,0,0,0-.41,0Z"/><path class="cls-1" d="M69.36,17.79a.4.4,0,0,0,0,.15c0,.09,0,.1-.1.2s-.09.08-.08.18v0a.33.33,0,0,1,0,.16l0,0,0-.11,0,0h0c0-.05.07-.1.11-.14v-.05l-.08,0h0v0s.18-.17.18-.2,0-.09,0-.12Z"/><path class="cls-1" d="M70.79,17.68h0a.62.62,0,0,1,0-.1h0l0,.1a.47.47,0,0,0,0,.3h0a.71.71,0,0,1,0-.18.29.29,0,0,0,0-.11"/><path class="cls-1" d="M60.3,18h0l-.07.12v.12l0,.08h0a.35.35,0,0,0,.08-.14l0-.11Z"/><path class="cls-1" d="M58.17,17.55s0-.21-.05-.23l.05.36.07.5h0l-.09-.49Z"/><path class="cls-1" d="M66,17.44a1.08,1.08,0,0,0-.34.25h.18l.2-.23h0Z"/><path class="cls-1" d="M60,17.53A3.4,3.4,0,0,1,59.9,17h-.44a.23.23,0,0,1,0,.1s0,0-.07,0l.05.23c0,.1,0,.21,0,.31a.45.45,0,0,0,0,.15,1.15,1.15,0,0,0,.08.13h0a.08.08,0,0,1-.07,0c0,.07-.07.16,0,.15s-.09.14-.11.2h-.62a.64.64,0,0,0-.19.1.41.41,0,0,0-.11.09s-.18.3-.09.37h.12a.22.22,0,0,1,0-.16h0a.45.45,0,0,0,.07.15c.05,0,.23,0,.25,0s0-.21.13-.25a.26.26,0,0,0,.08.26h.49a.45.45,0,0,1,.19-.21c.05,0,.16,0,.2-.05a1.54,1.54,0,0,0,.07-.31h0a.57.57,0,0,0,0-.26s0-.17,0-.36h0a.75.75,0,0,0,0-.15"/><path class="cls-1" d="M58,17.42l0-.29a.79.79,0,0,0,0,.29c0,.08,0,.17,0,.26s0,.27,0,.41a.12.12,0,0,0-.05.06h0l.11,0-.06-.44Z"/><path class="cls-1" d="M57.92,17.11V17c0-.22-.05-.43-.08-.64h-.4l.08.33s0,0,0,.05h0l-.1,0v0l0,0,0-.17a1.34,1.34,0,0,0-.19,0v0s.11-.06.16-.06l0-.12v0h0a.11.11,0,0,0-.06.06s0,.09,0,.14h0a.27.27,0,0,1,.06-.2l.09-.07h0v0l.06,0,0,.06h.4c0-.12,0-.23-.06-.35l0-.13,0-.15c0-.08-.05-.17-.08-.24a.79.79,0,0,1,0-.09h-.25s0,0,0,.07v0l0,0c-.08,0-.08-.07-.06-.13h0l0-.07a.1.1,0,0,1,0,.06h.25a.24.24,0,0,0,0-.11l-.13-.09,0,0,0,.11h0s0-.1,0-.14L57.12,15,57,15l-.07,0h-1a.11.11,0,0,0,0,.09l0,.15a.79.79,0,0,0,0,.21.25.25,0,0,1,.18-.18c.05,0,.12,0,.15,0s0,0,0,0a1,1,0,0,0-.2,0,.2.2,0,0,0-.11.15h0a.28.28,0,0,0,0,.14s0,.07.06.1a.33.33,0,0,1-.1-.09l0,.33,0,.23a.27.27,0,0,1,.11-.23h0l.07,0c.05,0,.12,0,.15,0s0,0,0,0h0c-.06,0-.11,0-.18,0a.26.26,0,0,0-.12.31s0,.07.06.1-.08-.08-.12-.14a1.15,1.15,0,0,0,0,.19h0l0,.16v.06l.08.35,0,.07,0,.16a.45.45,0,0,0,0,.09c0-.08.12-.16.22-.13v0h0l.07.44h0l-.08-.41h0s0,0-.06.05a.29.29,0,0,0,0,.15s0,0,0,0a2.41,2.41,0,0,0,0,.31l.06.26c0,.13,0,.26.07.38h0l0,.08.28-.06c.12,0,.25,0,.38,0h0a3.23,3.23,0,0,0,.55-.14A1.67,1.67,0,0,0,58,18c0-.11,0-.22,0-.33H56.39l0,0H56.3v0h0a.58.58,0,0,0,0-.09h0s0,.06,0,.11H58a4.19,4.19,0,0,0-.06-.57M57.5,17s.12,0,.14,0h0l0,0V17h-.11s0,0,0,0h0a.29.29,0,0,0,0,.11h0a.11.11,0,0,1-.08-.11h0s0-.06.05-.07m-.3-.27v0h0a.16.16,0,0,1,.06.14h0s-.05,0-.1,0l0,0s0-.05,0-.09m.09-1,0,0h.06l0,.23,0,.11v.12h0l0-.24,0-.17h0Zm0,.49v0l-.31.06a.23.23,0,0,1,.15-.08h.09l0-.1h0V16h.06a.27.27,0,0,0,.06.17m-.48.29.07.38,0,0h0v0l-.11,0v0a1.48,1.48,0,0,0-.05-.4l-.11,0s.05.08,0,.12l0,0h0c0-.08,0-.1,0-.17L57,16.4h0v0h0v0s0,.07,0,.12v0H57l0-.08v-.06Zm-.32-.33.08.1,0,0a.26.26,0,0,1-.09-.36h0a.25.25,0,0,1,.11-.12c.06,0,.13,0,.19,0v0h.05a.1.1,0,0,1,0,.05c-.07,0-.14,0-.21,0a.17.17,0,0,0-.07.06.27.27,0,0,0,0,.23m0,0v0c.08-.07.24,0,.3-.09h0l0,.09,0,0a1.06,1.06,0,0,0-.31,0m.41.16,0,0h0l-.05,0h0v0a.19.19,0,0,0,.09-.06H57Zm0-.47v0l0,0H57l0,.17,0,.17v.12h0L57,15.92l0-.12ZM57,15h0v0h.06l.09.4,0,.08h0s0,0,0,0l-.12,0,0-.06h0l0-.09,0-.11a.76.76,0,0,0-.2,0v-.06l.17-.06,0-.2v0a.11.11,0,0,0-.12.09c0,.05,0,.12,0,.17h0A.32.32,0,0,1,57,15m-.56.1c.08,0,.09,0,.07.11h0s0,0,0-.07h0Zm0,.56h0l-.05,0h0v0a.19.19,0,0,0,.09-.06h.05v0Zm-.05-.27v.07l0,0a1.06,1.06,0,0,0-.31,0v0c.07-.05.18,0,.25-.06h0l0,0h0v0h.16c0,.12.12.18.26.16l0-.16,0-.14a.45.45,0,0,1,0-.18h0l.06.32,0,.17h0l0,0,0-.11,0,0h0a.23.23,0,0,0,0,.08.18.18,0,0,1,0,.09l0,0-.18,0c-.11,0-.33-.07-.27-.23Zm0,.73h0a.07.07,0,0,1-.08,0v-.05l0,0h0s.08,0,.1,0l0,0v0l0,0c.09.09,0,.19-.08.23a.16.16,0,0,1-.14,0h0l0,0c.15.05.18-.08.18-.19s-.06,0-.1,0m-.12.45s0-.06.05-.07.12,0,.14,0h0l0,0v.06h-.11s0,0-.05,0a.28.28,0,0,0,0,.11h0a.12.12,0,0,1-.08-.12m.13.38v0l0,0v-.07c.12,0,.17,0,.25,0s-.1-.08-.14-.13l0,0a.28.28,0,0,1,.21.09.11.11,0,0,1,0,.17c-.07,0-.13,0-.2,0m.31.66a.09.09,0,0,1-.08,0s0,0,0-.07l0-.14,0-.09v0h0c.05.09-.06.23,0,.27h.07Zm.11-.1c-.2-.09-.14-.4,0-.48s.13,0,.19,0v0h.12v0l.06,0s0,0,0,.09h0s0,0,0-.07h0v0H57a.1.1,0,0,1,0,.05c-.07,0-.14,0-.21,0a.26.26,0,0,0-.11.3l.08.1Zm.3-.19,0,0a1,1,0,0,0-.31,0v0c.08-.07.24,0,.3-.09h0Zm0,.2h0l-.05,0h0v0a.18.18,0,0,0,.09-.06h.05v0Zm.31,0c-.11,0-.34-.07-.26-.24h0c0,.12.12.18.25.16,0-.12,0-.25-.06-.37V17a.17.17,0,0,1,0-.06l0,.1.08.41.08,0Zm.41-.11c-.07,0-.13,0-.2,0v0l0,0v-.07c.12,0,.17,0,.25,0s-.1-.08-.14-.13l0,0a.28.28,0,0,1,.21.09.11.11,0,0,1,0,.17"/><path class="cls-1" d="M55,17a.81.81,0,0,1,0-.15h0c-.13,0-.11.13-.15.23h0v0Z"/><polygon class="cls-1" points="57 16.44 57 16.43 56.97 16.44 56.96 16.46 56.99 16.45 57 16.44"/><path class="cls-1" d="M69.41,16.4h0c0-.12.07-.17,0-.28S69.3,16,69.23,16l-.07,0h0a2.17,2.17,0,0,1-.5-.31.67.67,0,0,1-.13-.18c0-.07-.07-.15-.13-.24a1.27,1.27,0,0,0-.24-.24H66.79a.5.5,0,0,1,.2.18.43.43,0,0,1-.15,0c0,.12.14.2.21.28h0a2.58,2.58,0,0,0,.51.49h0l.14.09a.63.63,0,0,0,.19.09s-.09-.1-.1-.16h0c.08,0,.12.14.19.19s.11,0,.13.07a1.37,1.37,0,0,0,.14.21.77.77,0,0,0,.13.14c.07.05.2.09.23.18h0c0,.08,0,.14,0,.22s0,.07,0,.1a2.83,2.83,0,0,1,0,.54.65.65,0,0,0,0,.1.33.33,0,0,1,0,.07l0,0h0s0,.1,0,.13,0,.26-.11.32a.9.9,0,0,0-.24,0h-.25a.82.82,0,0,0-.29.11h0a.67.67,0,0,0-.21.21c0,.07-.18.29-.09.37a1.42,1.42,0,0,0,.17,0s0-.15.05-.17h0c0,.11.07.19.18.17s.12,0,.15,0v-.1c0-.1.06-.2.16-.21,0,.22.05.18.11.32a1.72,1.72,0,0,0,.63,0c.09,0,.08-.13.13-.21l0,0h0s0-.19,0-.3v-.07c0-.11.07-.13.06-.24a1.13,1.13,0,0,1,.08-.33v0l.05-.25v-.14l.17-.17,0-.07a.58.58,0,0,0,.11-.44c0-.08-.08-.11-.1-.2M69,17l0,0h0v0a.2.2,0,0,0-.05-.18s-.06,0-.07,0a1.64,1.64,0,0,0-.16-.25c-.05-.05-.14-.08-.19-.13h0c.05,0,.06,0,.1,0,.25.06.23.1.36.27s.08,0,.09.1A.55.55,0,0,1,69,17"/><polygon class="cls-1" points="55.34 16.93 55.34 16.92 55.32 16.92 55.34 16.93"/><polygon class="cls-1" points="56.4 16.16 56.4 16.17 56.41 16.17 56.4 16.16"/><path class="cls-1" d="M60.23,16.09l0-.16h0l0,.12s0,0,0-.08v0a.61.61,0,0,1,0-.29.36.36,0,0,0,0-.15.39.39,0,0,1-.14,0h-.11v0H58.84a.78.78,0,0,0,.17.43h0l0,.07,0,.09c0,.14,0,.3.15.35v0h0a.28.28,0,0,0,.1.25s.05,0,.06,0v.25l0,.09h.44a.57.57,0,0,1,0-.24.53.53,0,0,0-.15.12h0v0a1.25,1.25,0,0,0,.17-.29.59.59,0,0,0,0-.2v-.05a1.62,1.62,0,0,1,.11-.27s0-.08,0-.1,0,.28,0,.42a.26.26,0,0,0,0,.1h0a.25.25,0,0,0,.09-.09h0a.48.48,0,0,0,.09-.31"/><polygon class="cls-1" points="57.37 16.34 57.37 16.36 57.37 16.34 57.37 16.34"/><path class="cls-1" d="M53.52,16.4h0c0,.21,0,.43.09.64h0l0,.13,0,.27c0,.08,0,.16,0,.24s.06.42.1.64h.06l-.08-.54v-.1h0l-.1-.64-.1-.64h0l-.08-.48h-.06v0c0,.14,0,.3.07.46"/><polygon class="cls-1" points="54.46 16.24 54.44 16.26 54.47 16.25 54.48 16.24 54.48 16.23 54.46 16.24"/><path class="cls-1" d="M53.51,15.92l-.08-.49h-.05l.07.49Z"/><path class="cls-1" d="M61.45,15.44a.54.54,0,0,1-.18.05c-.09,0-.1,0-.19,0a.15.15,0,0,0,.05.14h0c-.18,0-.16-.28-.39-.07,0,0-.07.07-.07.11s.17,0,.21,0v-.06h0s0,.05.08.06.09,0,.12,0h.06a.11.11,0,0,0,.12-.05.37.37,0,0,0,.13,0h0s0,0,0-.07.1,0,.13,0v0s0,0,0,0"/><path class="cls-1" d="M60.58,15.44l-.07.17h0c.07,0,.12-.08.13-.15l0,0Z"/><polygon class="cls-1" points="54.73 15.47 54.73 15.47 54.73 15.47 54.73 15.47"/><path class="cls-1" d="M56.84,15.62a.07.07,0,0,0,.06,0Z"/><path class="cls-1" d="M66.13,15.52h0a.25.25,0,0,0,.06-.06h-.06a.16.16,0,0,1-.13,0h0s0,0,.05-.07l-.09,0c-.06,0-.15,0-.2,0l-.07-.08a.5.5,0,0,0-.42-.22h-.13a1.45,1.45,0,0,1-.33.07c-.06,0-.09-.05-.15-.07h0c0,.12.09.25.13.38l1.23,1,0-.08a3.54,3.54,0,0,1,0-.4v-.06c0-.08-.09-.14-.12-.21l0-.11,0,0a.1.1,0,0,0,0,.08h0s.08,0,.13,0,.09,0,.13,0,.08-.11,0-.15a.12.12,0,0,1-.1,0"/><path class="cls-1" d="M65.62,17h.45a1.63,1.63,0,0,0,0-.41A2.07,2.07,0,0,0,66,16.4l-1.23-1c0,.16.1.31.15.45l0,0,0,0c.06.16.14.29.21.44h0l.12.26a1.27,1.27,0,0,1,.09.27.32.32,0,0,1,0,.11,1.91,1.91,0,0,1-.13.33,3,3,0,0,1-.18.31h0a2.34,2.34,0,0,1-.46.51l-.14.13-.05,0h-.27a.7.7,0,0,0-.21,0,1.21,1.21,0,0,0-.55.31.23.23,0,0,0-.1.23c.25.09.26-.12.4-.21h0c0,.08-.07.15,0,.22a1.17,1.17,0,0,0,.34,0c0-.09.16-.31.26-.27s-.09.14-.06.22l0,0,.22,0,0-.08h0a.16.16,0,0,0,.2.11h.14c.08-.17.13-.17.36-.16l.07-.08a.8.8,0,0,1,.05-.11,2.13,2.13,0,0,0,.12-.21v0c0-.1.13-.31.34-.59l0,0h-.19a.59.59,0,0,1,.08-.14c.09-.1.19-.21.29-.29a.25.25,0,0,0,.07-.21Z"/><polygon class="cls-1" points="66.18 15.41 66.17 15.41 66.12 15.44 66.17 15.44 66.18 15.41"/><polygon class="cls-1" points="57.04 15.05 57.04 15.05 57.04 15.06 57.04 15.05"/><path class="cls-1" d="M65.77,15.25a.13.13,0,0,0,.15-.09v0h0c-.06,0-.16,0-.17.07s0,0,0,.05"/><path class="cls-1" d="M61.83,15.2s-.08.06-.13.09a1.26,1.26,0,0,1-.14,0c0,.06,0,.09,0,.13a.14.14,0,0,0,0,.08c.09.06.19-.05.26-.08h0a1,1,0,0,0,.16,0h0v0a.17.17,0,0,1-.09,0v0H62v0c0-.06-.07,0-.15-.05"/><path class="cls-1" d="M63,15h-.16l.05,0a.1.1,0,0,0,.1,0"/><path class="cls-1" d="M62.72,15h0s0-.06-.09-.09a.2.2,0,0,1-.16.09h0l-.08,0s-.06.05-.06.13a.26.26,0,0,0,.19,0s.08,0,.12,0a.76.76,0,0,0,.22-.08v0s-.08,0-.12-.06"/><path class="cls-1" d="M54.65,15.08s0-.08,0-.12,0,0,0,0h0l0,0h0a.09.09,0,0,0,0,.12"/><path class="cls-1" d="M55,15h0c0,.09,0,.17.06.19h0s0-.2,0-.2"/><path class="cls-1" d="M62.29,15.19s-.09-.06-.15-.08-.09.06-.1.11h0a.5.5,0,0,0,.13.05h0l.1,0h.09l.05,0h0s-.09,0-.14,0"/><path class="cls-1" d="M58,14.8h0a.7.7,0,0,0-.09-.31h-.12a.42.42,0,0,0,.19.32"/><path class="cls-1" d="M68,14.83c-.08-.11-.16-.23-.23-.35H66.14c0,.1.19.3.27.32l0,0s.05.06.09.08l.27.13h1.36a.72.72,0,0,1-.12-.13"/><path class="cls-1" d="M56.71,14.89h-.13l-.18,0c-.11,0-.4,0-.49.1h.88l-.09,0"/><path class="cls-1" d="M63.92,14.53h0c-.06,0-.16,0-.2-.05l-.05,0a.88.88,0,0,1-.16.06h0l.24.1c.05,0,.06-.08.12-.09H64a.39.39,0,0,0,.15-.08v0h-.31s.07,0,.1,0"/><path class="cls-1" d="M54.46,14.84l.12-.18h0s0,.11,0,.14.08,0,.13,0a.34.34,0,0,0,.19,0s.06-.12.13-.14a.25.25,0,0,0,0,.13c.14.12.34,0,.36-.08s0-.17,0-.22l.06.06a.26.26,0,0,0,.27-.07c.07-.06.13-.13.18-.17l0-.06.15,0a5.31,5.31,0,0,0,.63-.13.46.46,0,0,0,0-.26h-.48L56,14l-.39.18-.1,0a1.56,1.56,0,0,1-.29.13c-.1,0-.21,0-.3,0a.78.78,0,0,0-.34.18h0a.49.49,0,0,0-.19.32l0,0Z"/><path class="cls-1" d="M63.49,14.83l0-.06s.05,0,.07,0-.13-.08-.21-.09-.17,0-.22,0a.21.21,0,0,0,.16.06v0c-.07,0-.14,0-.2,0a.24.24,0,0,0-.26.17v0H63a.18.18,0,0,1,.06,0h.1l.2,0Z"/><path class="cls-1" d="M64.6,14.29h0s-.15,0-.2,0h0s0,0,0-.06h0s-.13,0-.18.06a.13.13,0,0,0,0,.08l0,0h0a.54.54,0,0,1-.11,0s-.05,0-.08,0l-.09,0a.46.46,0,0,0-.15.08v0h.35c.07,0,.11.05.17,0l0,0s0-.07,0-.09.2,0,.24-.07"/><path class="cls-1" d="M57.82,14.47h.12a.18.18,0,0,0-.12-.07s0,0,0,.06"/><path class="cls-1" d="M57.11,13.83a2.26,2.26,0,0,1,.06-.31c-.06,0,0-.11-.07-.19-.06.12-.1.4,0,.5"/><path class="cls-1" d="M57.27,13.8h0v0h0c0,.07,0,.18,0,.25a.62.62,0,0,0,.1.21h0l0-.14a1.93,1.93,0,0,0-.05-.32h0a.08.08,0,0,0,0,0"/><path class="cls-1" d="M56.69,13.67c0-.11-.11,0-.12,0a1.47,1.47,0,0,1-.21.16h.44c0-.09,0-.16-.11-.18"/><path class="cls-1" d="M56.76,12.74l-.08,0s-.08.18-.05.22.15,0,.18,0h0l0-.12v-.15Z"/><path class="cls-1" d="M56.21,11.66h0c0-.08.05-.27.06-.38a.22.22,0,0,0,0-.08h0l0,.08h0a.68.68,0,0,0,0,.38"/><path class="cls-1" d="M60.58,11.45h0a.83.83,0,0,1,.25-.06h0a.08.08,0,0,1,0,.07c.2,0,.4,0,.61,0h.11c.09,0,.14-.14.18-.21h0a1.38,1.38,0,0,1-.33,0h-.29a.35.35,0,0,1-.13,0v0l0,0h-.14c-.07.09-.2.07-.26.17"/><path class="cls-1" d="M61.86,11l0-.06s-.21,0-.29,0a1.22,1.22,0,0,1-.36.1s0,0,0,0a.29.29,0,0,0-.23.11S61,11,61,11l0,0a1.21,1.21,0,0,0-.33.23h0l.19,0s0,0,0,.07h.11a.2.2,0,0,1,0,.08H61l.16-.08a1.9,1.9,0,0,0,.22-.06s.08-.1.14-.08a.16.16,0,0,1-.06.1c.13,0,.42,0,.42-.17"/><path class="cls-1" d="M60.21,10.9h0A.4.4,0,0,0,60,11c.07,0,.16-.05.2-.11h-.07v0Z"/><path class="cls-1" d="M62.87,10.9a.54.54,0,0,0,.2,0,.12.12,0,0,0,0,0h-.87l-.09,0a2.65,2.65,0,0,0,.72.07"/><path class="cls-1" d="M62.8,11.11v0s-.08,0-.09,0v0h0s0,0,0,0-.3,0-.35,0l0,0h0c-.08,0-.19,0-.29,0,0,.08,0,.12-.1.15l.07,0h0l0,0h0a1.46,1.46,0,0,0,.79-.14"/><path class="cls-1" d="M60.8,10.9h0l.14-.1h-.13Z"/><path class="cls-1" d="M56.26,10.81h.05a.11.11,0,0,0,0-.06l0,.06a.44.44,0,0,0-.07.34h0c0-.09.12-.23.12-.34Z"/><path class="cls-1" d="M59.86,11.18h0l0,.11,0,.11h0s.05-.07.07-.1h0a.13.13,0,0,0,0-.1"/><path class="cls-1" d="M60.81,10.81H61c.09-.07.17-.17.09-.29h0l-.12.08-.19.15s-.09.06-.11,0l0,0,.09-.11a1.21,1.21,0,0,0-.28.15h0a.07.07,0,0,1,.05,0c0,.07-.12.16-.16.21a.85.85,0,0,0,.35-.15Z"/><path class="cls-1" d="M60.51,10.33h-.1c0,.06-.07.08-.09.13a.38.38,0,0,0,.18-.13"/><path class="cls-1" d="M64.08,10.39c-.12,0-.21-.05-.33-.06v.07s0,0,0,0-.08,0-.12,0l-.11.1s0,0-.07,0l.12,0v0h0a1.8,1.8,0,0,0,.44,0l.19-.08v0a.8.8,0,0,1-.19,0v0a.17.17,0,0,0,.09,0"/><path class="cls-1" d="M60.84,10.33h0v0s-.07.07-.1.1h0a.81.81,0,0,0,.36-.13Z"/><path class="cls-1" d="M59.44,10.81h.08a.15.15,0,0,0-.06-.08Z"/><path class="cls-1" d="M63.14,10.67l-.15,0s-.13,0-.15,0l0,0h-.26s-.06,0-.07,0h0l0,0v0c-.09,0-.21-.06-.31,0h0l.07.05,0,0h.84a.69.69,0,0,0,0-.14"/><path class="cls-1" d="M63.32,10.88l.25-.08h0l0,0h0l0,0h-.14l0,0-.14.05,0,0h0a.12.12,0,0,1,0,.07Z"/><path class="cls-1" d="M57,10.44c.07,0,.17,0,.25.06l.1,0c.07,0,.18,0,.22-.09l0,0H57a.13.13,0,0,0,0,.11"/><path class="cls-1" d="M59.88,10.33h0a2.84,2.84,0,0,0-.14-.48h-.28a.31.31,0,0,0,.09.21.53.53,0,0,1,.16.26h0c0,.14.07.43.1.42s.08-.08.08-.22a1.22,1.22,0,0,0,0-.2"/><path class="cls-1" d="M57.47,10.67l0-.05a1.32,1.32,0,0,1-.28,0c-.13.09-.41-.09-.47.1a.36.36,0,0,0,0,.11h0a.37.37,0,0,0,.13.24s.07-.11.1-.09L57,11a1.18,1.18,0,0,1,.28-.23h0l.22-.09Z"/><path class="cls-1" d="M63.42,10.33h0a.1.1,0,0,0,0-.07v0a.27.27,0,0,1-.13,0s.12,0,.15-.11h-.19a1.59,1.59,0,0,1-.44,0,.61.61,0,0,0-.22,0h-.32l.16,0h0s-.13,0-.17,0v0l-.14.06h0a1.09,1.09,0,0,1,.31.07c.13,0,.29,0,.45,0a.31.31,0,0,0,.12,0l.22-.07a1.15,1.15,0,0,0,.18-.06"/><path class="cls-1" d="M62,10.51H61.9l-.2,0-.15.07a.16.16,0,0,0,0-.07.34.34,0,0,0-.29.12.74.74,0,0,1,.2,0v0a1.1,1.1,0,0,0-.27.14h0l0,0h0l.37,0h0c.17,0,.28,0,.43-.06s.1-.12.05-.24"/><path class="cls-1" d="M55.74,10.09h0a.31.31,0,0,1,.1-.15h0a.58.58,0,0,0,0,.12c0,.07,0,.17,0,.25v0s0,.11,0,.14a.25.25,0,0,1,.08-.13h0a1.38,1.38,0,0,1,0,.2c0,.06,0,.14,0,.22a.52.52,0,0,0,.06.43h0a1.76,1.76,0,0,0,0-.31.45.45,0,0,1,0-.11c0-.05.06-.1.08-.15s0-.15,0-.16a.14.14,0,0,0-.08.11h0a.86.86,0,0,1,.05-.26h0a.23.23,0,0,0,0-.15h0a.23.23,0,0,0,0,.12h0c0-.11.06-.2,0-.31L56,9.84h0v-.1a.16.16,0,0,0-.12-.12.52.52,0,0,0-.14.23h0a.16.16,0,0,0,0,.07.86.86,0,0,1,0,.17"/><path class="cls-1" d="M66.72,10c.21,0,.72.08.82-.09h0a1,1,0,0,0-.22,0h-.07a4,4,0,0,1-.43-.08l-.26-.11-.21,0-.05,0-.36-.09c-.13,0-.25,0-.36-.05s-.11,0-.17,0l-.09-.07h-.22l0,0a1,1,0,0,1-.15-.06c-.09,0-.19,0-.28-.06s-.22,0-.3,0v0h-.18l.11,0h0a.57.57,0,0,0-.34,0h0l.16.07,0,.07,0,0,.08,0a9,9,0,0,0,.95.29l.3.08.33.06h0a2.6,2.6,0,0,0,.9.15"/><path class="cls-1" d="M59,10.28a.07.07,0,0,1,0,0h0a.24.24,0,0,1,0,.09h.24c0-.06-.06-.12-.07-.18s0-.21,0-.31v0l-.14-.2,0-.12a.34.34,0,0,0,0-.12h-.1a.36.36,0,0,1,0,.09c0,.09,0,.15,0,.22a.18.18,0,0,1,.19.16h0a3.1,3.1,0,0,1,0,.36l0,.09s0,0,0,0"/><path class="cls-1" d="M65.11,10c0,.05.1,0,.16.05a.65.65,0,0,0,.57-.09h0a1.78,1.78,0,0,1-.5-.14h0l0,0a.65.65,0,0,0-.2,0H65s.05,0,.07-.05h0l-.22-.07c-.16-.05-.3-.07-.44-.11s-.18,0-.22-.07,0,0,0,0l-.14,0h-.12s-.12.08-.15.14h0s.13,0,.14.07,0,.12,0,.15.16,0,.23.05h0c.19,0,.42,0,.61.08s.18.06.28.11"/><path class="cls-1" d="M58.38,10h0a.21.21,0,0,1,.11.08,1,1,0,0,0,0-.24h-.21v0h0v0H58c-.05.09,0,.14,0,.23a.52.52,0,0,0,.09.16s.07.1.13.08.1-.21.08-.31"/><path class="cls-1" d="M63.74,10a.35.35,0,0,0-.07.14,1.53,1.53,0,0,0,.46.07,1,1,0,0,0,.24,0c.09,0,.12-.09.19-.14a.57.57,0,0,1-.19,0h0l.07,0h0a.66.66,0,0,0-.29,0l0,0,0-.05-.21,0h-.05v0s0,0-.08.05"/><path class="cls-1" d="M60.51,10.33v0s-.05-.07-.11-.08l0,0,0,.08h.1Z"/><path class="cls-1" d="M62.17,9.9h0l0,0h0s-.06,0-.09,0l-.17.08,0,0c0,.06-.31,0-.37.09h0l.16,0c0,.06-.28.08-.33.14l.06,0h0l0,0h0l0,0h0a.8.8,0,0,0,.29,0h0c.18,0,.48,0,.48-.26A.16.16,0,0,0,62,10c0-.06.09-.08.14-.09"/><path class="cls-1" d="M61.21,10.18l-.12,0h0s.1-.08.07-.18H61.1s-.07,0-.09.05l-.07.11-.18.08h0a.16.16,0,0,1,.07,0h.26c.07,0,.12-.1.11-.15"/><path class="cls-1" d="M67.76,9.84h.15a1.2,1.2,0,0,0,.52,0h0a1.17,1.17,0,0,0,.38-.16v0c-.13-.15-.48-.07-.69-.11s-.24,0-.38,0a3.81,3.81,0,0,1-.64-.13l0,0H65.9l.59.17.58.16a1.29,1.29,0,0,0,.28.07l.4.08Z"/><path class="cls-1" d="M56.2,9.44c.07,0,.1-.06.16-.08h-.21v0Z"/><path class="cls-1" d="M61.85,9.38l.09,0h0c-.05.09-.18,0-.28.07a1.19,1.19,0,0,0-.2.06,1,1,0,0,1,.18,0h0v0a1.46,1.46,0,0,0-.33.09h0l.24,0h.09a1.23,1.23,0,0,0-.26.12h0l0,0,.27,0h0c.23,0,.49-.1.51-.24s-.06-.16-.1-.23h-.22Z"/><path class="cls-1" d="M58.06,9.82v0h.21a.27.27,0,0,0,0-.1c-.09,0-.12,0-.16.07"/><path class="cls-1" d="M58.4,9.68v0c.07,0,.08,0,.13.06a1.15,1.15,0,0,1,0-.23l0-.12h-.18c0,.06-.11.14-.13.2s.16.12.14.24v0h.21a.2.2,0,0,0-.1-.16"/><path class="cls-1" d="M61,9.37H60.8l-.11.1a1,1,0,0,1-.16.08c0,.05,0,.08,0,.12h0A1,1,0,0,0,61,9.37"/><path class="cls-1" d="M59.26,9.38c.07.13.13.23.19.35a.27.27,0,0,1,0,.12h.27c-.06-.17-.11-.33-.16-.47h-.32Z"/><path class="cls-1" d="M60.24,9.58a.34.34,0,0,0-.18.11.14.14,0,0,1,0,.15l0,0v0a.18.18,0,0,0,.12-.06h0a.56.56,0,0,0,.11-.26Z"/><path class="cls-1" d="M61.09,9.84l0,0A.13.13,0,0,0,61,9.59c-.13.06-.12,0-.2.12v0a.36.36,0,0,1-.1.07h.06v0a.18.18,0,0,0-.11.06V10a.35.35,0,0,0-.14,0A.84.84,0,0,0,61.09,9.84Z"/><path class="cls-1" d="M62.52,9.84h0c-.11,0-.22,0-.27.08h0a1.91,1.91,0,0,0,.48.08c.06,0,.16,0,.18,0,.3,0,.65,0,.77-.19h0s0,0,0-.08a.06.06,0,0,1-.06,0c0-.09.11-.11,0-.22a1.66,1.66,0,0,0-.54.13.37.37,0,0,0,.16,0v0h0a.72.72,0,0,1-.22,0l-.55-.07a.27.27,0,0,1,0,.07l-.17,0h0v0a2.21,2.21,0,0,1,.26,0,.25.25,0,0,1,.1,0v0a.51.51,0,0,1-.15.06"/><path class="cls-1" d="M60,9.54h0c.07,0,.16-.11.25-.19h-.1c0,.08-.11.13-.15.17"/><path class="cls-1" d="M56.62,9.39v0h-.17l.16,0"/><path class="cls-1" d="M63,9.46l.24,0,.07,0,0,0h-1l0,.05a5.76,5.76,0,0,0,.62,0"/><path class="cls-1" d="M62.3,9.32v0h1v0h0c.17,0,.43.05.53-.09s0-.22,0-.24-.37,0-.52.06v0a.35.35,0,0,1,.16,0v0a2.45,2.45,0,0,1-.45,0l0,0,.08,0h0a1.74,1.74,0,0,0-.56,0c-.07,0-.16,0-.19.09"/><path class="cls-1" d="M58.76,9.37h.1a.32.32,0,0,0-.15-.1l0,.1"/><path class="cls-1" d="M67.52,8.92h-.16c-.11,0-.23-.09-.34-.11l-.19,0h-.21s-.08.07-.16,0l-.29-.1h-.55a1.38,1.38,0,0,0,.36.15l.13,0c.07,0,.12,0,.18,0a2.56,2.56,0,0,0,.43.13c.21.07.42.15.64.21a2,2,0,0,1,.38.08,1.1,1.1,0,0,1,.26,0l.15,0,.28,0A1.35,1.35,0,0,0,69,9.37h0a.58.58,0,0,0,.35-.23v0c-.1-.06-.32,0-.42,0-.32-.06-.62,0-1-.08Z"/><path class="cls-1" d="M60.32,9.27a.13.13,0,0,1-.08,0V9.2h0c0,.05-.1.06-.16.1h0s0,0,0,.06h.1l.11-.09Z"/><path class="cls-1" d="M61,9.13h0c-.06.08-.16.11-.23.19l.18,0v0l-.1.06H61a.23.23,0,0,0,0-.11s0,0,0,0a.08.08,0,0,0,0-.08"/><path class="cls-1" d="M60.63,8.92h.14s.16-.08.16-.13l0,0v0h-.14v0c0,.06-.14.06-.15.13"/><path class="cls-1" d="M61.23,9.24h0c.15-.07.41,0,.49-.17s0,0,0,0a.38.38,0,0,0,.19-.12c0-.07-.06-.1,0-.17h0c-.06.07-.17.08-.24.15s-.24.18-.3.2l0,0s-.07.07-.11.11"/><path class="cls-1" d="M66.39,9.14s0,0,0,.06h0A3.47,3.47,0,0,1,66,9a2.86,2.86,0,0,0-.49-.15c-.05,0-.26-.11-.29-.09h0s.13.07.15.12h0a1.93,1.93,0,0,1-.5-.2h-.1v0l-.1,0h-.13a.32.32,0,0,1,.12.07h0a2.44,2.44,0,0,1-.4-.06h0c.09,0,.19.08.28.12s.42.16.63.26l.2.06a5.23,5.23,0,0,0,.54.18h1.17l-.4-.14a1.44,1.44,0,0,0-.28-.09"/><path class="cls-1" d="M56,9.27a.39.39,0,0,0,0-.19.13.13,0,0,1-.09,0v0S56,9,56,9h0c-.15.08-.17.16-.16.34.05,0,.07-.11.16,0"/><polygon class="cls-1" points="62.08 9.37 62.07 9.3 61.86 9.37 62.08 9.37 62.08 9.37"/><path class="cls-1" d="M58.45,9.23h.06c0-.08-.06-.14-.16-.15s-.08,0-.1.08,0,.12,0,.18h.17v0s0-.08,0-.09"/><path class="cls-1" d="M65.53,8.61a.2.2,0,0,0,.09.12h.55a1.5,1.5,0,0,0-.6-.15s0,0,0,0"/><path class="cls-1" d="M63,8.27h-.18a.44.44,0,0,0-.24,0,.24.24,0,0,0,0,.1c0,.06.35.06.45,0a.73.73,0,0,1,.26,0,.51.51,0,0,0,.22,0,.88.88,0,0,0,.38-.29s0,0,0,0a1,1,0,0,0-.29.12.07.07,0,0,1,0,0,.9.9,0,0,0-.36,0v0s.08,0,.09,0h0a.73.73,0,0,1-.31,0"/><path class="cls-1" d="M62.46,8.73h0v0s-.05.08,0,.12.36.1.47.08.34,0,.5,0a1.58,1.58,0,0,0,.24-.09l.21-.08v0h0s.05,0,.07-.06a.16.16,0,0,0-.08-.22,1.47,1.47,0,0,1-.39.05.4.4,0,0,0-.13,0s0,0,0,.07l0,0c-.15,0-.49-.11-.61,0v0c-.11,0-.33,0-.4.08Z"/><path class="cls-1" d="M61.48,8.54s-.12,0-.14.07a1.88,1.88,0,0,1,.31,0A.46.46,0,0,0,62,8.32s.07-.11.07-.16h0l-.09,0a1.54,1.54,0,0,0-.27.18l.15,0h0a3.16,3.16,0,0,0-.32.18"/><path class="cls-1" d="M58.28,7.88l.08.05s0,.09.05.15.09.07.13.11l.07.16a.65.65,0,0,0,.1.08l.11.11a.32.32,0,0,1,.07.05.37.37,0,0,1,0,.12.34.34,0,0,0,0,.08h0a.33.33,0,0,1,0,.07c0,.08,0,.09.11.19a1.64,1.64,0,0,1,.15.3h.33A2,2,0,0,0,59.43,9l-.17-.28h0A1.86,1.86,0,0,0,59,8.41c-.08-.08-.26-.11-.42-.3a.27.27,0,0,1,.07-.46,1.08,1.08,0,0,1,.59-.07.59.59,0,0,0,.34-.13H58.12a1.26,1.26,0,0,0-.22.21l.19.08a1,1,0,0,1,.19.15"/><path class="cls-1" d="M64.87,8.73a1.83,1.83,0,0,0-.34-.14c0,.07.14.1.21.14Z"/><path class="cls-1" d="M60.93,8.59a.59.59,0,0,1-.13.14h.12a.25.25,0,0,0,0-.11l0,0Z"/><path class="cls-1" d="M55.92,8.69a.23.23,0,0,0,0-.1h0a.34.34,0,0,0,.21,0s0,0,0-.06,0,0-.06,0v0a.39.39,0,0,1,.18,0c.07,0,.09.08.19.06V8.35h0s.12.11.18.09,0-.07,0-.1.14.12.23.08a.54.54,0,0,0,.2.09c.07,0,.15,0,.18,0v0l-.21.06c-.09,0-.19,0-.24,0s-.06,0-.09.06c-.21-.08-.3-.08-.4.06h0l-.05.08.08,0h0c0,.06,0,.1,0,.14s0,0,0,0-.12.23-.16.34a.37.37,0,0,0,0,.08h.48v0h0v0h.26a.21.21,0,0,1,0-.15h0a.18.18,0,0,0,.08.15h0a.2.2,0,0,0,.16,0h0a.31.31,0,0,1,.14,0l.16,0h0s.17.1.22.08,0,0,0,0h0c0,.09-.26.19-.36.21h-.18l0,.07c-.12,0-.17-.18-.23-.26s-.17,0-.15,0l.09,0v0h-.26v.12c0,.06,0,.12-.06.18l0,.11s-.07,0-.1,0-.29,0-.32-.16h0c0,.07-.05.09-.05.18l.13.09c.05,0,.11.07.12.06s0,0,0,0,0,.34,0,.45h0a2,2,0,0,0,.23.19.34.34,0,0,0,.14-.1.15.15,0,0,0-.07-.1h0c-.1-.07-.25-.08-.18-.27,0,0,.05.09.11.11a1.61,1.61,0,0,0,.47,0l.06-.07h0c0,.13-.13.17-.2.26h.55a.39.39,0,0,0,0-.2.39.39,0,0,1,0-.13.49.49,0,0,1,.09-.15h0a.55.55,0,0,1,.12-.12h0s0,.07,0,.11h0a.41.41,0,0,0,.16-.33s0-.09-.08-.15a.23.23,0,0,1,0-.18s0-.06,0-.08.2,0,.23-.06A.44.44,0,0,1,58,9s0,0,0,0h0A.21.21,0,0,0,58,8.81a.35.35,0,0,0-.14,0h0v0s0,0,0-.08h0l0,0s-.1,0-.14,0v0c.11,0,.18-.3.26-.28s.06.09.08.15l.1,0a1,1,0,0,1,0,.17h0l.15,0s.07-.16.15-.1h0a.34.34,0,0,0-.12.2h0v0l.11,0a.17.17,0,0,0,.1-.1h0s0,.07,0,.09a.44.44,0,0,1,0,.14h0l.14,0c.06,0,.1.11.18.11s0,0,0-.07l-.12-.19h0l0,0s0,0-.07,0c.06-.18-.08-.25-.18-.32l-.13-.15s0-.09,0-.14l-.15-.14s-.21-.08-.21-.13H57.8l-.22,0h0c0-.06-.08-.11-.16-.08s-.08.06-.12.07h0s0,0-.09,0h0v0l0,0a.19.19,0,0,0-.2,0l-.05,0s0,0,0,0-.15,0-.18,0-.1.22-.19.19l0,0a.6.6,0,0,0-.19.09s0,.11-.08.15-.1,0-.13.07,0,.11-.08.14l-.1,0s-.11.16-.08.22Zm1.74-.57s.07-.06.11-.07.09,0,.14,0L58,8c.06,0,.07.07.12.08s0,0,.07,0a.07.07,0,0,1,0,0s-.07,0-.11,0-.06,0-.11,0-.08,0-.12-.05h-.13Zm-.14.35c.1,0,.11-.11.16-.19h0c.1,0,0,.13,0,.2s0,.06,0,.09-.06,0-.07-.1-.09,0-.11,0Z"/><path class="cls-1" d="M65.4,8.58l0-.06h0l-.27-.07h0v0a.51.51,0,0,1,.22.11Z"/><path class="cls-1" d="M64.53,8.73h.13l-.34-.12a.65.65,0,0,0,.21.12"/><path class="cls-1" d="M60.38,7.11h.16a.94.94,0,0,1,.2,0l.21,0c.14,0,.28,0,.42,0a1.65,1.65,0,0,1,.38,0H62l.17,0a1.39,1.39,0,0,1,.32.07l.44.11.28.06a1.32,1.32,0,0,1,.48.2h0l.14.1-.07-.1h0c-.16-.19-.34-.18-.64-.3a6.22,6.22,0,0,0-2-.34.38.38,0,0,1-.15,0h.4c.18,0,.29,0,.47,0s.24,0,.35,0,.33,0,.49.07l.41.07c.7.24.86.39.94.48h0l.06.06a4.35,4.35,0,0,0,.89.43l1.26.5.4.13a.56.56,0,0,0,.17,0,1.2,1.2,0,0,0,.87-.39c.05-.07.15-.13.16-.24l0,0a2.08,2.08,0,0,1-.45,0h0A1.56,1.56,0,0,0,68,7.8l.12-.14s.15-.14.14-.21v0l-.19,0-.34.06-.66.07a1.45,1.45,0,0,1-.42,0H66c-.27,0-.56,0-.82-.09h-.07c-.28-.06-.56-.15-.82-.24s-.31-.07-.47-.13-.44-.25-.7-.32-.33-.06-.51-.1a8.86,8.86,0,0,0-1.72-.12l-.37,0c-.19,0-.42,0-.6.07a4.34,4.34,0,0,0-1.27.43,4.53,4.53,0,0,0-.4.28l-.15.12h1.46a1.15,1.15,0,0,1,.79-.34"/><path class="cls-1" d="M53.63,8.4c0-.09,0-.11.08-.13s.06,0,.08,0a2.38,2.38,0,0,1,.14.55.19.19,0,0,1-.12.22,2.84,2.84,0,0,1-1.69.15.11.11,0,0,1-.1-.06,0,0,0,0,1,0-.05l.1,0a2.8,2.8,0,0,0,1.12-.31.89.89,0,0,0,.37-.39"/><path class="cls-2" d="M48,13.68v2c0,.09,0,.14.06.17a.58.58,0,0,0,.24,0v0h-.87v-.05a.47.47,0,0,0,.24-.06.25.25,0,0,0,.06-.2V14.12a.33.33,0,0,0,0-.12.08.08,0,0,0-.08,0l-.11,0-.12.05v0l.57-.32h0"/><path class="cls-2" d="M49.7,15.77a.56.56,0,0,1-.47.25.64.64,0,0,1-.5-.28,1.15,1.15,0,0,1-.22-.74,1.38,1.38,0,0,1,.43-1,1.25,1.25,0,0,1,.87-.36v.06a1.43,1.43,0,0,0-.33.11.8.8,0,0,0-.25.19,1.45,1.45,0,0,0-.21.31,1.39,1.39,0,0,0-.14.37l.17-.09a.61.61,0,0,1,.25-.05.53.53,0,0,1,.41.19.77.77,0,0,1,.17.53.91.91,0,0,1-.18.56M49.53,15a.38.38,0,0,0-.37-.29.32.32,0,0,0-.32.16.71.71,0,0,0,0,.3,1.42,1.42,0,0,0,.11.54.36.36,0,0,0,.34.26.28.28,0,0,0,.27-.17.91.91,0,0,0,.08-.4,1.13,1.13,0,0,0-.06-.4"/><path class="cls-1" d="M50.45,15.79a.45.45,0,0,0,.24.1.36.36,0,0,0,.32-.16.61.61,0,0,0,.1-.35.58.58,0,0,0-.08-.32.53.53,0,0,0-.49-.23h-.08v0a1.32,1.32,0,0,0,.39-.22.43.43,0,0,0,.14-.33.35.35,0,0,0-.11-.28.38.38,0,0,0-.25-.1.4.4,0,0,0-.3.14,1.08,1.08,0,0,0-.15.23h0a.79.79,0,0,1,.23-.41.56.56,0,0,1,.39-.15.46.46,0,0,1,.49.47.48.48,0,0,1-.11.3,1,1,0,0,1-.19.17.81.81,0,0,1,.24.16.63.63,0,0,1,.17.45.8.8,0,0,1-.23.56.86.86,0,0,1-.66.24.45.45,0,0,1-.27-.06.18.18,0,0,1-.07-.13.16.16,0,0,1,0-.08.09.09,0,0,1,.08,0,.44.44,0,0,1,.22.1"/><path class="cls-2" d="M52.63,15.82a.4.4,0,0,0,.09-.27.43.43,0,0,0-.1-.3,2.78,2.78,0,0,0-.4-.35.52.52,0,0,0-.19.24.72.72,0,0,0-.06.28.58.58,0,0,0,.11.37.34.34,0,0,0,.28.14.33.33,0,0,0,.27-.11m0-1.37a.52.52,0,0,0,.1-.31.41.41,0,0,0-.09-.27.33.33,0,0,0-.27-.11.31.31,0,0,0-.23.1.33.33,0,0,0-.09.24.47.47,0,0,0,.11.29,1.33,1.33,0,0,0,.29.25,1,1,0,0,0,.2-.19m-.72.1a.6.6,0,0,1-.11-.36.5.5,0,0,1,.17-.38.63.63,0,0,1,.44-.16.54.54,0,0,1,.4.15.47.47,0,0,1,.15.34.5.5,0,0,1-.15.35,1.44,1.44,0,0,1-.28.21,2,2,0,0,1,.38.37.61.61,0,0,1,.11.37.55.55,0,0,1-.17.41.61.61,0,0,1-.45.17.65.65,0,0,1-.43-.15.5.5,0,0,1-.18-.4.6.6,0,0,1,.13-.38,1.44,1.44,0,0,1,.28-.25,1.79,1.79,0,0,1-.28-.28"/><path class="cls-1" d="M47.44,12.92a.84.84,0,0,0,.12.24.37.37,0,0,0,.31.16.24.24,0,0,0,.17-.07.25.25,0,0,0,.07-.19.28.28,0,0,0-.07-.19,1.26,1.26,0,0,0-.2-.15l-.18-.12a.63.63,0,0,1-.13-.11.36.36,0,0,1-.09-.24.4.4,0,0,1,.1-.28.36.36,0,0,1,.28-.11.48.48,0,0,1,.17,0l.11,0,.05,0a.15.15,0,0,0,0-.06h0l0,.48h0a.51.51,0,0,0-.16-.3.36.36,0,0,0-.22-.09.22.22,0,0,0-.15.05.19.19,0,0,0-.06.15.23.23,0,0,0,0,.15.64.64,0,0,0,.15.13l.18.12a1,1,0,0,1,.24.21.38.38,0,0,1,.07.23.4.4,0,0,1-.12.3.43.43,0,0,1-.31.12.56.56,0,0,1-.2,0l-.12,0a.05.05,0,0,0,0,0l0,.05h0l-.06-.48Z"/><path class="cls-1" d="M48.34,13.33a.33.33,0,0,0,.16,0s0-.08,0-.16v-1a.24.24,0,0,0,0-.16.27.27,0,0,0-.16,0v0H49v0a.27.27,0,0,0-.16,0,.23.23,0,0,0,0,.16v1c0,.09,0,.14,0,.16a.32.32,0,0,0,.16,0v0h-.61Z"/><path class="cls-1" d="M49,13.33a.24.24,0,0,0,.16-.06.45.45,0,0,0,0-.23V12l0,0a.22.22,0,0,0-.08-.07l-.09,0v0h.35L50.17,13v-.75a.4.4,0,0,0,0-.24.24.24,0,0,0-.15,0v0h.48v0a.23.23,0,0,0-.16.06.41.41,0,0,0,0,.23V13.4h0l-.91-1.23V13a.39.39,0,0,0,0,.24.23.23,0,0,0,.14,0v0H49Z"/><path class="cls-1" d="M51.34,11.89l.13,0,.06,0a.09.09,0,0,0,0-.05h0l0,.51h0a.76.76,0,0,0-.11-.24.4.4,0,0,0-.34-.17.42.42,0,0,0-.35.19.85.85,0,0,0-.14.51.75.75,0,0,0,.14.48.45.45,0,0,0,.37.18.55.55,0,0,0,.29-.08.88.88,0,0,0,.17-.14l0,0a.73.73,0,0,1-.17.17.64.64,0,0,1-.38.12.65.65,0,0,1-.53-.23.8.8,0,0,1-.18-.54.82.82,0,0,1,.19-.55.66.66,0,0,1,.52-.23.78.78,0,0,1,.23,0"/><path class="cls-1" d="M51.75,13.33a.28.28,0,0,0,.15,0s0-.07,0-.16v-1a.25.25,0,0,0,0-.16.23.23,0,0,0-.15,0v0h1.1v.32H52.8a.33.33,0,0,0-.08-.19.4.4,0,0,0-.23,0h-.28l-.06,0a.11.11,0,0,0,0,.06v.5h.32c.09,0,.14,0,.17,0a.38.38,0,0,0,.06-.17h0v.52h0a.39.39,0,0,0-.06-.17.23.23,0,0,0-.17,0h-.32v.56s0,.07,0,.08h.23a.74.74,0,0,0,.31,0A.46.46,0,0,0,52.9,13H53l-.09.38H51.75Z"/></g></g></svg>