<svg xmlns="http://www.w3.org/2000/svg" viewBox="0 0 24 24"><defs><style>.cls-1{fill:#847552;}</style></defs><title>percent</title><g id="Livello_2" data-name="Livello 2"><g id="Livello_1-2" data-name="Livello 1"><path class="cls-1" d="M.18,22.92,22.92.18l.89.89L1.08,23.82Zm0,0"/><path class="cls-1" d="M3.79,7.58A3.79,3.79,0,1,0,0,3.79,3.8,3.8,0,0,0,3.79,7.58Zm0-6.32A2.53,2.53,0,1,1,1.26,3.79,2.53,2.53,0,0,1,3.79,1.26Zm0,0"/><path class="cls-1" d="M20.21,16.42A3.79,3.79,0,1,0,24,20.21a3.79,3.79,0,0,0-3.79-3.79Zm0,6.32a2.53,2.53,0,1,1,2.53-2.53,2.53,2.53,0,0,1-2.53,2.53Zm0,0"/></g></g></svg>