<svg xmlns="http://www.w3.org/2000/svg" viewBox="0 0 37.3 24.8"><defs><style>.cls-1{fill:#847552;}</style></defs><title>risto</title><g id="Livello_2" data-name="Livello 2"><g id="Livello_1-2" data-name="Livello 1"><path class="cls-1" d="M18.65,0A12.4,12.4,0,1,0,31,12.4,12.41,12.41,0,0,0,18.65,0Zm0,23.44a11,11,0,1,1,11-11A11,11,0,0,1,18.65,23.44Z"/><path class="cls-1" d="M19.33,3.81a.68.68,0,0,0-.68-.68A9.29,9.29,0,0,0,9.38,12.4a.68.68,0,1,0,1.36,0,7.92,7.92,0,0,1,7.91-7.91A.68.68,0,0,0,19.33,3.81Z"/><path class="cls-1" d="M18.65,20.31a.68.68,0,0,0,0,1.36,9.29,9.29,0,0,0,9.27-9.28.68.68,0,1,0-1.36,0A7.92,7.92,0,0,1,18.65,20.31Z"/><path class="cls-1" d="M36.62,0a3.81,3.81,0,0,0-3.81,3.81V12.4a2.25,2.25,0,0,0,2.24,2.24h.88v9.47a.68.68,0,1,0,1.36,0V.68A.68.68,0,0,0,36.62,0Zm-.68,13.28h-.88a.88.88,0,0,1-.88-.88V3.81A2.45,2.45,0,0,1,35.8,1.5l.13,0Z"/><path class="cls-1" d="M5.37,0a.68.68,0,0,0-.68.68v7a1.64,1.64,0,0,1-.83,1.41l-.15.09V.68a.68.68,0,1,0-1.36,0V9.21l-.15-.09a1.64,1.64,0,0,1-.83-1.41v-7A.68.68,0,1,0,0,.68v7a3,3,0,0,0,2.27,2.92l.08,0V24.12a.68.68,0,1,0,1.36,0V10.65l.08,0A3,3,0,0,0,6,7.71v-7A.68.68,0,0,0,5.37,0Z"/></g></g></svg>