<svg xmlns="http://www.w3.org/2000/svg" viewBox="0 0 17.22 17.22"><defs><style>.cls-1{fill:#847552;stroke:#847552;stroke-miterlimit:10;stroke-width:0.25px;}</style></defs><title>Time</title><g id="Livello_2" data-name="Livello 2"><g id="Livello_1-2" data-name="Livello 1"><path class="cls-1" d="M8.61.13a8.48,8.48,0,1,0,8.48,8.48A8.49,8.49,0,0,0,8.61.13Zm0,16.4a7.92,7.92,0,1,1,7.92-7.92,7.92,7.92,0,0,1-7.92,7.92Zm0,0"/><path class="cls-1" d="M8.61,1.82a.28.28,0,0,0-.28.28v6.5H4.08a.28.28,0,0,0,0,.57H8.61a.28.28,0,0,0,.28-.28V2.1a.28.28,0,0,0-.28-.28Zm0,0"/></g></g></svg>